<svg height="512" viewBox="0 0 508.722 508.722" width="512" xmlns="http://www.w3.org/2000/svg"><path d="M494.405 329.374h-2.683v-16.607c0-7.625-6.204-13.829-13.829-13.829h-14.036l-60.567-60.567a7.628 7.628 0 00-.817-.697v-82.927h43.713a7.5 7.5 0 005.921-12.104l-30-38.581a7.501 7.501 0 00-5.921-2.896h-15.854L156.408 4.345a7.444 7.444 0 00-.729-.249c-.079-.023-.159-.038-.239-.058-.149-.037-.298-.076-.45-.104-.144-.027-.288-.044-.432-.062-.089-.011-.177-.026-.267-.034a7.12 7.12 0 00-.525-.025c-.05-.001-.099-.007-.15-.007H134.97a7.501 7.501 0 00-7.472 6.847l-7.908 90.514H68.981c-.247-9.688-8.188-17.498-17.935-17.498H17.958C8.056 83.668 0 91.724 0 101.626v53.734c0 9.902 8.056 17.958 17.958 17.958h33.088c9.902 0 17.958-8.056 17.958-17.958v-.612h47.59l-8.904 296.251h-6.843c-14.802 0-26.844 12.042-26.844 26.844v19.574a7.5 7.5 0 007.5 7.5h13.465a7.5 7.5 0 000-15h-5.965v-12.074c0-6.531 5.313-11.844 11.844-11.844h94.938c6.531 0 11.844 5.313 11.844 11.844v12.074h-82.662a7.5 7.5 0 000 15h90.162a7.5 7.5 0 007.5-7.5v-19.574c0-14.802-12.042-26.844-26.844-26.844H180.93l-8.904-296.251h41.476v37.407c0 10.718 8.72 19.438 19.438 19.438h57.543c10.718 0 19.438-8.72 19.438-19.438v-37.407h77.549v82.3a7.49 7.49 0 00-1.79 1.323l-60.567 60.567H310.05c-7.625 0-13.829 6.204-13.829 13.829v16.607h-6.983c-7.895 0-14.317 6.422-14.317 14.317v14.108c0 7.894 6.422 14.316 14.317 14.316h20.124a7.5 7.5 0 000-15h-19.441v-12.741h203.798v12.741H339.365a7.5 7.5 0 000 15h155.04c7.894 0 14.317-6.422 14.317-14.316v-14.108c0-7.894-6.423-14.317-14.317-14.317zM141.843 18.806h4.9l7.196 82.361h-19.292zM54.004 155.36a2.961 2.961 0 01-2.958 2.958H17.958A2.961 2.961 0 0115 155.36v-53.734a2.961 2.961 0 012.958-2.958h33.088a2.961 2.961 0 012.958 2.958v45.622zm15-39.193h152a7.5 7.5 0 000-15h-52.009l-6.851-78.407 197.53 78.407h-108.67a7.5 7.5 0 000 15h147.849l.042.002.026-.002h13.595l18.336 23.581H69.003v-23.581zm60.801 98.358l22.634 16.387-24.128 33.326zm1.301 156.212l31.234-39.022 1.894 63.024zm2.323-87.99l26.346-36.39 1.704 56.712zm-6.098 14.106l27.66 20.039-29.365 36.685zm27.66 109.712l-32.165 40.184 1.867-62.134zm-19.429-206.39l21.951-29.111 1.383 46.005zm15.466-45.427l-20.233 26.834.806-26.834zm-12.39 296.25l26.3-32.856.987 32.856zm156.286-258.843a4.443 4.443 0 01-4.438 4.438h-57.543a4.443 4.443 0 01-4.438-4.438v-37.407h66.419zm147.72 106.783h-40.171v-40.171zm-55.171-41.143v41.144h-41.144zm-76.249 56.143h165.498v15.436H311.224z"/></svg>