<svg height="512" viewBox="0 0 48 48" width="512" xmlns="http://www.w3.org/2000/svg"><path d="M5 44h38a1 1 0 001-1V19a1 1 0 00-1-1h-5V9a1 1 0 00-1-1h-5V7a3 3 0 00-3-3H19a3 3 0 00-3 3v1h-5a1 1 0 00-1 1v9H5a1 1 0 00-1 1v24a1 1 0 001 1zm33-24h4v22h-4zM27 42h-6v-7h6zM18 7a1 1 0 011-1h10a1 1 0 011 1v10a1 1 0 01-1 1H19a1 1 0 01-1-1zm-6 3h4v7a3 3 0 003 3h10a3 3 0 003-3v-7h4v32h-7v-8a1 1 0 00-1-1h-8a1 1 0 00-1 1v8h-7zM6 20h4v22H6z"/><path d="M21 13h2v2a1 1 0 002 0v-2h2a1 1 0 000-2h-2V9a1 1 0 10-2 0v2h-2a1 1 0 000 2zm-4 12h2a1 1 0 000-2h-2a1 1 0 000 2zm3 4a1 1 0 00-1-1h-2a1 1 0 000 2h2a1 1 0 001-1zm3-4h2a1 1 0 000-2h-2a1 1 0 000 2zm0 5h2a1 1 0 000-2h-2a1 1 0 000 2zm6-5h2a1 1 0 000-2h-2a1 1 0 000 2zm0 5h2a1 1 0 000-2h-2a1 1 0 000 2z"/></svg>