<svg width="81" height="81" fill="none" xmlns="http://www.w3.org/2000/svg"><path fill-rule="evenodd" clip-rule="evenodd" d="M65.214 63.367h-53.2v-34.4h52v5.168a1.2 1.2 0 102.4 0v-17.6a1.2 1.2 0 00-1.2-1.168h-54.4a1.2 1.2 0 00-1.2 1.2v48a1.2 1.2 0 001.2 1.2h54.4a1.2 1.2 0 000-2.4zm-1.2-45.6v8.8h-52v-8.8h52z" fill="#000"/><path fill-rule="evenodd" clip-rule="evenodd" d="M16.014 23.367h4.8a1.2 1.2 0 000-2.4h-4.8a1.2 1.2 0 100 2.4zm11.2 0h4.8a1.2 1.2 0 000-2.4h-4.8a1.2 1.2 0 100 2.4zm51.104 26.048v-.104a1.2 1.2 0 000-.12v-.464a1.2 1.2 0 000-.12v-.104l-.048-.112-.064-.104-.04-.072c-.328-.408-8.136-10.448-18.248-10.448-11.104 0-19.296 10.024-19.64 10.448l-.064.096-.064.096a1.5 1.5 0 00-.048.12v.096a1.188 1.188 0 000 .128v.448a1.188 1.188 0 000 .128v.096c.014.041.03.081.048.12l.064.096.064.096c.344.408 8.536 10.432 19.64 10.432 10.112 0 17.92-10.04 18.248-10.472l.04-.072.064-.104.048-.104zm-18.4 8.352c-8.296 0-15.04-6.552-17.112-8.8 2.072-2.248 8.8-8.8 17.112-8.8 7.448 0 13.792 6.576 15.728 8.8-1.928 2.224-8.28 8.8-15.728 8.8z" fill="#000"/><path fill-rule="evenodd" clip-rule="evenodd" d="M59.214 42.167a6.8 6.8 0 106.8 6.8 6.809 6.809 0 00-6.8-6.8zm0 11.2a4.4 4.4 0 114.4-4.4 4.408 4.408 0 01-4.4 4.4z" fill="#000"/></svg>