<svg width="81" height="81" fill="none" xmlns="http://www.w3.org/2000/svg"><g clip-path="url(#clip0_79_200)"><g clip-path="url(#clip1_79_200)" fill-rule="evenodd" clip-rule="evenodd" fill="#000"><path d="M40.014 41.767a15.616 15.616 0 00-15.6 15.6 1.2 1.2 0 001.2 1.2h28.8a1.2 1.2 0 001.2-1.2 15.617 15.617 0 00-15.6-15.6zm-13.144 14.4a13.2 13.2 0 0126.296 0H26.87zm12.344-18a9.2 9.2 0 10-9.2-9.2 9.208 9.208 0 009.2 9.2zm0-16a6.8 6.8 0 11-6.8 6.8 6.808 6.808 0 016.8-6.8z"/><path d="M77.614 38.567h-4.04a33.6 33.6 0 00-32.76-32v-4.4a1.2 1.2 0 00-2.4 0v4.44a33.64 33.64 0 00-31.96 31.96h-4.04a1.2 1.2 0 100 2.4h4a33.6 33.6 0 0032 32.76v4.44a1.2 1.2 0 002.4 0v-4.4a33.6 33.6 0 0032.8-32.8h4a1.2 1.2 0 000-2.4zm-36.8 32.8v-3.6a1.2 1.2 0 00-2.4 0v3.56a31.2 31.2 0 01-29.6-30.36h4a1.2 1.2 0 000-2.4h-3.96a31.248 31.248 0 0129.56-29.56v3.56a1.2 1.2 0 002.4 0v-3.6a31.2 31.2 0 0130.36 29.6h-3.96a1.2 1.2 0 100 2.4h4a31.2 31.2 0 01-30.4 30.4z"/></g></g><defs><clipPath id="clip0_79_200"><path fill="#fff" transform="translate(.014 .167)" d="M0 0h80v80H0z"/></clipPath><clipPath id="clip1_79_200"><path fill="#fff" transform="translate(.014 .167)" d="M0 0h80v80H0z"/></clipPath></defs></svg>