<svg width="81" height="81" fill="none" xmlns="http://www.w3.org/2000/svg"><g clip-path="url(#clip0_79_213)"><g clip-path="url(#clip1_79_213)" fill-rule="evenodd" clip-rule="evenodd" fill="#000"><path d="M61.518 40.103a1.2 1.2 0 00-1.104-.736H46.598l8-32.496a1.2 1.2 0 00-2.024-1.104L18.766 39.72a1.2 1.2 0 00.848 2.048H33.43l-8 32.496a1.2 1.2 0 002.024 1.104l33.808-33.952a1.2 1.2 0 00.256-1.312zM28.814 70.64l7.328-29.784a1.2 1.2 0 00-1.176-1.488H22.502l28.712-28.872-7.312 29.784a1.2 1.2 0 001.16 1.488h12.464L28.814 70.64zm28.048-15.32a1.2 1.2 0 00-1.696 1.696l9.6 9.6a1.2 1.2 0 001.696-1.696l-9.6-9.6zM22.414 24.567a1.2 1.2 0 00.848-2.048l-9.6-9.6a1.2 1.2 0 00-1.696 1.696l9.6 9.6a1.2 1.2 0 00.848.352z"/><path d="M54.766 23.815a1.2 1.2 0 001.696 0l9.6-9.6a1.2 1.2 0 00-1.696-1.696l-9.6 9.6a1.2 1.2 0 000 1.696zm-32.8 31.904l-9.6 9.6a1.201 1.201 0 101.696 1.696l9.6-9.6a1.2 1.2 0 00-1.696-1.696zm-7.152-7.552a2 2 0 100 4 2 2 0 000-4zm-7.2-5.6a2 2 0 100 4 2 2 0 000-4zm64-10.4a2 2 0 100 4 2 2 0 000-4zm-46.4-20a2 2 0 100 4 2 2 0 000-4z"/></g></g><defs><clipPath id="clip0_79_213"><path fill="#fff" transform="translate(.014 .167)" d="M0 0h80v80H0z"/></clipPath><clipPath id="clip1_79_213"><path fill="#fff" transform="translate(.014 .167)" d="M0 0h80v80H0z"/></clipPath></defs></svg>